%FSAX24Y24*%
%MOIN*%
G70*
G01*
G75*
G04 Layer_Color=65535*
%ADD10R,0.0354X0.0315*%
%ADD11R,0.0394X0.0500*%
%ADD12R,0.0400X0.0669*%
%ADD13R,0.0500X0.0394*%
%ADD14C,0.0200*%
%ADD15C,0.0030*%
%ADD16C,0.0570*%
%ADD17C,0.0700*%
%ADD18C,0.0050*%
%ADD19R,0.0394X0.0394*%
%ADD20R,0.0394X0.0315*%
%ADD21R,0.0236X0.0413*%
%ADD22C,0.0100*%
D15*
X040750Y054300D02*
X049900D01*
X040750Y049750D02*
Y054300D01*
Y049750D02*
X049900D01*
Y054300D01*
D18*
X044500Y053300D02*
G03*
X044500Y053300I-000400J000000D01*
G01*
X042003Y053200D02*
G03*
X042003Y053200I-000403J000000D01*
G01*
Y051600D02*
G03*
X042003Y051600I-000403J000000D01*
G01*
X049403Y052200D02*
G03*
X049403Y052200I-000403J000000D01*
G01*
Y050500D02*
G03*
X049403Y050500I-000403J000000D01*
G01*
X043300Y053300D02*
G03*
X043300Y053300I-000400J000000D01*
G01*
X043750Y053925D02*
X043917D01*
X043833Y054008D02*
Y053842D01*
X044000D02*
X044042Y053800D01*
X044125D01*
X044167Y053842D01*
Y054008D01*
X044125Y054050D01*
X044042D01*
X044000Y054008D01*
Y053967D01*
X044042Y053925D01*
X044167D01*
X044250Y054050D02*
Y053883D01*
X044333Y053800D01*
X044416Y053883D01*
Y054050D01*
X041000Y054000D02*
X041100D01*
X041050D01*
Y053700D01*
X041000D01*
X041100D01*
X041450Y053950D02*
X041400Y054000D01*
X041300D01*
X041250Y053950D01*
Y053750D01*
X041300Y053700D01*
X041400D01*
X041450Y053750D01*
Y053850D01*
X041350D01*
X041550Y053700D02*
Y054000D01*
X041750Y053700D01*
Y054000D01*
X041850D02*
Y053700D01*
X042000D01*
X042050Y053750D01*
Y053950D01*
X042000Y054000D01*
X041850D01*
X047600Y050050D02*
Y050300D01*
X047725D01*
X047767Y050258D01*
Y050175D01*
X047725Y050133D01*
X047600D01*
X047683D02*
X047767Y050050D01*
X047975D02*
Y050300D01*
X047850Y050175D01*
X048017D01*
X044050Y052400D02*
Y052650D01*
X044175D01*
X044217Y052608D01*
Y052525D01*
X044175Y052483D01*
X044050D01*
X044133D02*
X044217Y052400D01*
X044300Y052608D02*
X044342Y052650D01*
X044425D01*
X044467Y052608D01*
Y052567D01*
X044425Y052525D01*
X044383D01*
X044425D01*
X044467Y052483D01*
Y052442D01*
X044425Y052400D01*
X044342D01*
X044300Y052442D01*
X042800Y051100D02*
Y051350D01*
X042925D01*
X042967Y051308D01*
Y051225D01*
X042925Y051183D01*
X042800D01*
X042883D02*
X042967Y051100D01*
X043217D02*
X043050D01*
X043217Y051267D01*
Y051308D01*
X043175Y051350D01*
X043092D01*
X043050Y051308D01*
X044517Y051692D02*
Y051858D01*
X044475Y051900D01*
X044392D01*
X044350Y051858D01*
Y051692D01*
X044392Y051650D01*
X044475D01*
X044433Y051733D02*
X044517Y051650D01*
X044475D02*
X044517Y051692D01*
X044600Y051650D02*
X044683D01*
X044642D01*
Y051900D01*
X044600Y051858D01*
X048550Y053000D02*
X048450D01*
X048400Y052950D01*
Y052750D01*
X048450Y052700D01*
X048550D01*
X048600Y052750D01*
Y052950D01*
X048550Y053000D01*
X048900Y052950D02*
X048850Y053000D01*
X048750D01*
X048700Y052950D01*
Y052750D01*
X048750Y052700D01*
X048850D01*
X048900Y052750D01*
Y052850D01*
X048800D01*
X049000Y052700D02*
Y053000D01*
X049200Y052700D01*
Y053000D01*
X049300D02*
Y052700D01*
X049450D01*
X049500Y052750D01*
Y052950D01*
X049450Y053000D01*
X049300D01*
X041150Y052500D02*
X041267D01*
X041208D01*
Y052150D01*
X041150D01*
X041267D01*
X041442D02*
Y052500D01*
X041675Y052150D01*
Y052500D01*
X048825Y051400D02*
X048708D01*
X048650Y051342D01*
Y051108D01*
X048708Y051050D01*
X048825D01*
X048883Y051108D01*
Y051342D01*
X048825Y051400D01*
X049000D02*
Y051108D01*
X049058Y051050D01*
X049175D01*
X049233Y051108D01*
Y051400D01*
X049350D02*
X049583D01*
X049466D01*
Y051050D01*
X042650Y054050D02*
Y053800D01*
X042775D01*
X042817Y053842D01*
Y053883D01*
X042775Y053925D01*
X042650D01*
X042775D01*
X042817Y053967D01*
Y054008D01*
X042775Y054050D01*
X042650D01*
X043067Y054008D02*
X043025Y054050D01*
X042942D01*
X042900Y054008D01*
Y053842D01*
X042942Y053800D01*
X043025D01*
X043067Y053842D01*
Y053925D01*
X042983D01*
X043150Y053800D02*
Y054050D01*
X043316Y053800D01*
Y054050D01*
X043400D02*
Y053800D01*
X043525D01*
X043566Y053842D01*
Y054008D01*
X043525Y054050D01*
X043400D01*
X047467Y052108D02*
X047425Y052150D01*
X047342D01*
X047300Y052108D01*
Y051942D01*
X047342Y051900D01*
X047425D01*
X047467Y051942D01*
X047717Y051900D02*
X047550D01*
X047717Y052067D01*
Y052108D01*
X047675Y052150D01*
X047592D01*
X047550Y052108D01*
X045366Y051208D02*
X045325Y051250D01*
X045241D01*
X045200Y051208D01*
Y051042D01*
X045241Y051000D01*
X045325D01*
X045366Y051042D01*
X045450Y051000D02*
X045533D01*
X045491D01*
Y051250D01*
X045450Y051208D01*
X045150Y051850D02*
Y052100D01*
X045275D01*
X045317Y052058D01*
Y051975D01*
X045275Y051933D01*
X045150D01*
X045233D02*
X045317Y051850D01*
X045400D02*
X045483D01*
X045442D01*
Y052100D01*
X045400Y052058D01*
X046567Y053558D02*
X046525Y053600D01*
X046442D01*
X046400Y053558D01*
Y053517D01*
X046442Y053475D01*
X046525D01*
X046567Y053433D01*
Y053392D01*
X046525Y053350D01*
X046442D01*
X046400Y053392D01*
X046650Y053517D02*
Y053392D01*
X046692Y053350D01*
X046817D01*
Y053517D01*
X046900Y053350D02*
Y053517D01*
X046941D01*
X046983Y053475D01*
Y053350D01*
Y053475D01*
X047025Y053517D01*
X047066Y053475D01*
Y053350D01*
X047150D02*
Y053517D01*
X047191D01*
X047233Y053475D01*
Y053350D01*
Y053475D01*
X047275Y053517D01*
X047316Y053475D01*
Y053350D01*
X047400D02*
X047483D01*
X047441D01*
Y053517D01*
X047400D01*
X047650Y053558D02*
Y053517D01*
X047608D01*
X047691D01*
X047650D01*
Y053392D01*
X047691Y053350D01*
X047816Y053600D02*
Y053350D01*
X047941D01*
X047983Y053392D01*
Y053558D01*
X047941Y053600D01*
X047816D01*
X048191Y053350D02*
X048108D01*
X048066Y053392D01*
Y053475D01*
X048108Y053517D01*
X048191D01*
X048233Y053475D01*
Y053433D01*
X048066D01*
X048316Y053350D02*
X048441D01*
X048483Y053392D01*
X048441Y053433D01*
X048358D01*
X048316Y053475D01*
X048358Y053517D01*
X048483D01*
X048566Y053350D02*
Y053392D01*
X048608D01*
Y053350D01*
X048566D01*
X048941Y053517D02*
X048816D01*
X048774Y053475D01*
Y053392D01*
X048816Y053350D01*
X048941D01*
X049066D02*
X049149D01*
X049191Y053392D01*
Y053475D01*
X049149Y053517D01*
X049066D01*
X049024Y053475D01*
Y053392D01*
X049066Y053350D01*
X049274D02*
Y053517D01*
X049316D01*
X049357Y053475D01*
Y053350D01*
Y053475D01*
X049399Y053517D01*
X049441Y053475D01*
Y053350D01*
X046567Y053908D02*
X046525Y053950D01*
X046442D01*
X046400Y053908D01*
Y053742D01*
X046442Y053700D01*
X046525D01*
X046567Y053742D01*
Y053825D01*
X046483D01*
X046650Y053867D02*
Y053742D01*
X046692Y053700D01*
X046817D01*
Y053867D01*
X046900Y053700D02*
X046983D01*
X046941D01*
Y053867D01*
X046900D01*
X047150Y053908D02*
Y053867D01*
X047108D01*
X047191D01*
X047150D01*
Y053742D01*
X047191Y053700D01*
X047358Y053867D02*
X047441D01*
X047483Y053825D01*
Y053700D01*
X047358D01*
X047316Y053742D01*
X047358Y053783D01*
X047483D01*
X047566Y053867D02*
Y053700D01*
Y053783D01*
X047608Y053825D01*
X047650Y053867D01*
X047691D01*
X048066Y053700D02*
Y053950D01*
X048191D01*
X048233Y053908D01*
Y053825D01*
X048191Y053783D01*
X048066D01*
X048316Y053867D02*
Y053700D01*
Y053783D01*
X048358Y053825D01*
X048399Y053867D01*
X048441D01*
X048691Y053700D02*
X048608D01*
X048566Y053742D01*
Y053825D01*
X048608Y053867D01*
X048691D01*
X048733Y053825D01*
Y053783D01*
X048566D01*
X048858Y053867D02*
X048941D01*
X048983Y053825D01*
Y053700D01*
X048858D01*
X048816Y053742D01*
X048858Y053783D01*
X048983D01*
X049066Y053700D02*
Y053867D01*
X049107D01*
X049149Y053825D01*
Y053700D01*
Y053825D01*
X049191Y053867D01*
X049232Y053825D01*
Y053700D01*
X049316Y053617D02*
Y053867D01*
X049441D01*
X049482Y053825D01*
Y053742D01*
X049441Y053700D01*
X049316D01*
D19*
X044400Y051307D02*
D03*
Y050500D02*
D03*
D20*
X044557Y050904D02*
D03*
D21*
X044479D02*
D03*
D22*
X045606Y052050D02*
X047006D01*
Y051350D02*
Y052050D01*
X045606Y051350D02*
Y052050D01*
Y051350D02*
X047006D01*
X041906Y050950D02*
X043306D01*
Y050250D02*
Y050950D01*
X041906Y050250D02*
Y050950D01*
Y050250D02*
X043306D01*
X046484Y052256D02*
Y053144D01*
X048316Y052256D02*
Y053144D01*
X046484D02*
X048316D01*
X046484Y052256D02*
X048316D01*
X042500Y052550D02*
X043900D01*
Y051850D02*
Y052550D01*
X042500Y051850D02*
Y052550D01*
Y051850D02*
X043900D01*
X048250Y050400D02*
Y051800D01*
X047550Y050400D02*
X048250D01*
X047550Y051800D02*
X048250D01*
X047550Y050400D02*
Y051800D01*
X045600Y050250D02*
X047000D01*
X045600D02*
Y050950D01*
X047000Y050250D02*
Y050950D01*
X045600D02*
X047000D01*
M02*
