%FSAX24Y24*%
%MOIN*%
G70*
G01*
G75*
G04 Layer_Color=2752767*
%ADD10R,0.0354X0.0315*%
%ADD11R,0.0394X0.0500*%
%ADD12R,0.0400X0.0669*%
%ADD13R,0.0500X0.0394*%
%ADD14C,0.0200*%
%ADD15C,0.0030*%
%ADD16C,0.0570*%
%ADD17C,0.0700*%
%ADD18C,0.0050*%
%ADD19R,0.0394X0.0394*%
%ADD20R,0.0394X0.0315*%
%ADD21R,0.0236X0.0413*%
%ADD22C,0.0100*%
%ADD23R,0.0434X0.0395*%
%ADD24R,0.0474X0.0580*%
%ADD25R,0.0480X0.0749*%
%ADD26R,0.0580X0.0474*%
%ADD27C,0.0650*%
%ADD28C,0.0780*%
%ADD29C,0.0080*%
%ADD30C,0.0067*%
%ADD31C,0.0160*%
%ADD32C,0.0080*%
D15*
X040750Y054300D02*
X049900D01*
X040750Y049750D02*
Y054300D01*
Y049750D02*
X049900D01*
Y054300D01*
X043900Y053100D02*
Y053500D01*
X044300D01*
Y053100D01*
X043900D01*
X042700D02*
Y053500D01*
X043100D01*
Y053100D01*
X042700D01*
X045500Y052850D02*
X045300Y053250D01*
X045700D01*
X045500Y052850D01*
X017750Y078250D02*
Y078730D01*
X018230D01*
Y078250D01*
X017750D01*
X017990Y075850D02*
X017750Y076330D01*
X018230D01*
X017990Y075850D01*
D22*
X023189Y078190D02*
X022789D01*
X023189Y078590D01*
Y078690D01*
X023089Y078790D01*
X022889D01*
X022789Y078690D01*
X029747D02*
X029847Y078790D01*
X030047D01*
X030147Y078690D01*
Y078590D01*
X030047Y078490D01*
X029947D01*
X030047D01*
X030147Y078390D01*
Y078290D01*
X030047Y078190D01*
X029847D01*
X029747Y078290D01*
X030347Y078790D02*
X030747D01*
Y078690D01*
X030347Y078290D01*
Y078190D01*
X030947D02*
Y078590D01*
X031046D01*
X031146Y078490D01*
Y078190D01*
Y078490D01*
X031246Y078590D01*
X031346Y078490D01*
Y078190D01*
X031546D02*
X031746D01*
X031646D01*
Y078590D01*
X031546D01*
X032046Y078190D02*
X032246D01*
X032146D01*
Y078790D01*
X032046D01*
X033346Y078190D02*
X033146Y078390D01*
Y078590D01*
X033346Y078790D01*
X033646Y078690D02*
X033746Y078790D01*
X033946D01*
X034046Y078690D01*
Y078290D01*
X033946Y078190D01*
X033746D01*
X033646Y078290D01*
Y078690D01*
X034245Y078190D02*
Y078290D01*
X034345D01*
Y078190D01*
X034245D01*
X034745Y078290D02*
X034845Y078190D01*
X035045D01*
X035145Y078290D01*
Y078690D01*
X035045Y078790D01*
X034845D01*
X034745Y078690D01*
Y078590D01*
X034845Y078490D01*
X035145D01*
X035345Y078690D02*
X035445Y078790D01*
X035645D01*
X035745Y078690D01*
Y078590D01*
X035645Y078490D01*
X035545D01*
X035645D01*
X035745Y078390D01*
Y078290D01*
X035645Y078190D01*
X035445D01*
X035345Y078290D01*
X035945D02*
X036045Y078190D01*
X036245D01*
X036345Y078290D01*
Y078690D01*
X036245Y078790D01*
X036045D01*
X035945Y078690D01*
Y078590D01*
X036045Y078490D01*
X036345D01*
X036545Y078690D02*
X036645Y078790D01*
X036845D01*
X036945Y078690D01*
Y078590D01*
X036845Y078490D01*
X036945Y078390D01*
Y078290D01*
X036845Y078190D01*
X036645D01*
X036545Y078290D01*
Y078390D01*
X036645Y078490D01*
X036545Y078590D01*
Y078690D01*
X036645Y078490D02*
X036845D01*
X037144Y078190D02*
Y078590D01*
X037244D01*
X037344Y078490D01*
Y078190D01*
Y078490D01*
X037444Y078590D01*
X037544Y078490D01*
Y078190D01*
X037744D02*
Y078590D01*
X037844D01*
X037944Y078490D01*
Y078190D01*
Y078490D01*
X038044Y078590D01*
X038144Y078490D01*
Y078190D01*
X038344D02*
X038544Y078390D01*
Y078590D01*
X038344Y078790D01*
X039624Y078190D02*
Y078790D01*
X039924D01*
X040024Y078690D01*
Y078490D01*
X039924Y078390D01*
X039624D01*
X040224Y078790D02*
X040624D01*
X040424D01*
Y078190D01*
X040824Y078790D02*
Y078190D01*
Y078490D01*
X041224D01*
Y078790D01*
Y078190D01*
X044663D02*
Y078790D01*
X044963D01*
X045063Y078690D01*
Y078490D01*
X044963Y078390D01*
X044663D01*
X044863D02*
X045063Y078190D01*
X045363D02*
X045563D01*
X045662Y078290D01*
Y078490D01*
X045563Y078590D01*
X045363D01*
X045263Y078490D01*
Y078290D01*
X045363Y078190D01*
X045862Y078590D02*
Y078290D01*
X045962Y078190D01*
X046262D01*
Y078590D01*
X046462Y078190D02*
Y078590D01*
X046762D01*
X046862Y078490D01*
Y078190D01*
X047462Y078790D02*
Y078190D01*
X047162D01*
X047062Y078290D01*
Y078490D01*
X047162Y078590D01*
X047462D01*
X023089Y076990D02*
Y077590D01*
X022789Y077290D01*
X023189D01*
X030147Y077590D02*
X029747D01*
Y077290D01*
X029947Y077390D01*
X030047D01*
X030147Y077290D01*
Y077090D01*
X030047Y076990D01*
X029847D01*
X029747Y077090D01*
X030347Y077490D02*
X030447Y077590D01*
X030647D01*
X030747Y077490D01*
Y077090D01*
X030647Y076990D01*
X030447D01*
X030347Y077090D01*
Y077490D01*
X030947Y076990D02*
Y077390D01*
X031046D01*
X031146Y077290D01*
Y076990D01*
Y077290D01*
X031246Y077390D01*
X031346Y077290D01*
Y076990D01*
X031546D02*
X031746D01*
X031646D01*
Y077390D01*
X031546D01*
X032046Y076990D02*
X032246D01*
X032146D01*
Y077590D01*
X032046D01*
X033346Y076990D02*
X033146Y077190D01*
Y077390D01*
X033346Y077590D01*
X033646Y076990D02*
X033846D01*
X033746D01*
Y077590D01*
X033646Y077490D01*
X034145Y076990D02*
Y077090D01*
X034245D01*
Y076990D01*
X034145D01*
X035045D02*
X034645D01*
X035045Y077390D01*
Y077490D01*
X034945Y077590D01*
X034745D01*
X034645Y077490D01*
X035245Y077590D02*
X035645D01*
Y077490D01*
X035245Y077090D01*
Y076990D01*
X035845D02*
Y077390D01*
X035945D01*
X036045Y077290D01*
Y076990D01*
Y077290D01*
X036145Y077390D01*
X036245Y077290D01*
Y076990D01*
X036445D02*
Y077390D01*
X036545D01*
X036645Y077290D01*
Y076990D01*
Y077290D01*
X036745Y077390D01*
X036845Y077290D01*
Y076990D01*
X037045D02*
X037244Y077190D01*
Y077390D01*
X037045Y077590D01*
X039624Y076990D02*
Y077590D01*
X039924D01*
X040024Y077490D01*
Y077290D01*
X039924Y077190D01*
X039624D01*
X040224Y077590D02*
X040624D01*
X040424D01*
Y076990D01*
X040824Y077590D02*
Y076990D01*
Y077290D01*
X041224D01*
Y077590D01*
Y076990D01*
X044663D02*
Y077590D01*
X044963D01*
X045063Y077490D01*
Y077290D01*
X044963Y077190D01*
X044663D01*
X044863D02*
X045063Y076990D01*
X045363D02*
X045563D01*
X045662Y077090D01*
Y077290D01*
X045563Y077390D01*
X045363D01*
X045263Y077290D01*
Y077090D01*
X045363Y076990D01*
X045862Y077390D02*
Y077090D01*
X045962Y076990D01*
X046262D01*
Y077390D01*
X046462Y076990D02*
Y077390D01*
X046762D01*
X046862Y077290D01*
Y076990D01*
X047462Y077590D02*
Y076990D01*
X047162D01*
X047062Y077090D01*
Y077290D01*
X047162Y077390D01*
X047462D01*
X022789Y075790D02*
X022989D01*
X022889D01*
Y076390D01*
X022789Y076290D01*
X029747Y075890D02*
X029847Y075790D01*
X030047D01*
X030147Y075890D01*
Y076290D01*
X030047Y076390D01*
X029847D01*
X029747Y076290D01*
Y076190D01*
X029847Y076090D01*
X030147D01*
X030347Y076290D02*
X030447Y076390D01*
X030647D01*
X030747Y076290D01*
Y075890D01*
X030647Y075790D01*
X030447D01*
X030347Y075890D01*
Y076290D01*
X030947Y075790D02*
Y076190D01*
X031046D01*
X031146Y076090D01*
Y075790D01*
Y076090D01*
X031246Y076190D01*
X031346Y076090D01*
Y075790D01*
X031546D02*
X031746D01*
X031646D01*
Y076190D01*
X031546D01*
X032046Y075790D02*
X032246D01*
X032146D01*
Y076390D01*
X032046D01*
X033346Y075790D02*
X033146Y075990D01*
Y076190D01*
X033346Y076390D01*
X034046Y075790D02*
X033646D01*
X034046Y076190D01*
Y076290D01*
X033946Y076390D01*
X033746D01*
X033646Y076290D01*
X034245Y075790D02*
Y075890D01*
X034345D01*
Y075790D01*
X034245D01*
X035145D02*
X034745D01*
X035145Y076190D01*
Y076290D01*
X035045Y076390D01*
X034845D01*
X034745Y076290D01*
X035345D02*
X035445Y076390D01*
X035645D01*
X035745Y076290D01*
Y076190D01*
X035645Y076090D01*
X035745Y075990D01*
Y075890D01*
X035645Y075790D01*
X035445D01*
X035345Y075890D01*
Y075990D01*
X035445Y076090D01*
X035345Y076190D01*
Y076290D01*
X035445Y076090D02*
X035645D01*
X036345Y076390D02*
X036145Y076290D01*
X035945Y076090D01*
Y075890D01*
X036045Y075790D01*
X036245D01*
X036345Y075890D01*
Y075990D01*
X036245Y076090D01*
X035945D01*
X036545Y075790D02*
Y076190D01*
X036645D01*
X036745Y076090D01*
Y075790D01*
Y076090D01*
X036845Y076190D01*
X036945Y076090D01*
Y075790D01*
X037144D02*
Y076190D01*
X037244D01*
X037344Y076090D01*
Y075790D01*
Y076090D01*
X037444Y076190D01*
X037544Y076090D01*
Y075790D01*
X037744D02*
X037944Y075990D01*
Y076190D01*
X037744Y076390D01*
X039624Y075790D02*
Y076390D01*
X039924D01*
X040024Y076290D01*
Y076090D01*
X039924Y075990D01*
X039624D01*
X040224Y076390D02*
X040624D01*
X040424D01*
Y075790D01*
X040824Y076390D02*
Y075790D01*
Y076090D01*
X041224D01*
Y076390D01*
Y075790D01*
X044663D02*
Y076390D01*
X044963D01*
X045063Y076290D01*
Y076090D01*
X044963Y075990D01*
X044663D01*
X044863D02*
X045063Y075790D01*
X045363D02*
X045563D01*
X045662Y075890D01*
Y076090D01*
X045563Y076190D01*
X045363D01*
X045263Y076090D01*
Y075890D01*
X045363Y075790D01*
X045862Y076190D02*
Y075890D01*
X045962Y075790D01*
X046262D01*
Y076190D01*
X046462Y075790D02*
Y076190D01*
X046762D01*
X046862Y076090D01*
Y075790D01*
X047462Y076390D02*
Y075790D01*
X047162D01*
X047062Y075890D01*
Y076090D01*
X047162Y076190D01*
X047462D01*
X022789Y075190D02*
X023189D01*
Y075090D01*
X022789Y074690D01*
Y074590D01*
X024269Y075190D02*
X024669D01*
X024469D01*
Y074590D01*
X024968D02*
X025168D01*
X025268Y074690D01*
Y074890D01*
X025168Y074990D01*
X024968D01*
X024868Y074890D01*
Y074690D01*
X024968Y074590D01*
X025568Y075090D02*
Y074990D01*
X025468D01*
X025668D01*
X025568D01*
Y074690D01*
X025668Y074590D01*
X026068Y074990D02*
X026268D01*
X026368Y074890D01*
Y074590D01*
X026068D01*
X025968Y074690D01*
X026068Y074790D01*
X026368D01*
X026568Y074590D02*
X026768D01*
X026668D01*
Y075190D01*
X026568D01*
D30*
X041800Y053200D02*
G03*
X041800Y053200I-000200J000000D01*
G01*
Y051600D02*
G03*
X041800Y051600I-000200J000000D01*
G01*
X049200Y052200D02*
G03*
X049200Y052200I-000200J000000D01*
G01*
Y050500D02*
G03*
X049200Y050500I-000200J000000D01*
G01*
D31*
X018230Y080230D02*
X018110Y080350D01*
X017870D01*
X017750Y080230D01*
Y080110D01*
X017870Y079990D01*
X018110D01*
X018230Y079870D01*
Y079750D01*
X018110Y079630D01*
X017870D01*
X017750Y079750D01*
X018470Y080110D02*
Y079750D01*
X018590Y079630D01*
X018950D01*
Y079510D01*
X018830Y079390D01*
X018710D01*
X018950Y079630D02*
Y080110D01*
X019190Y079630D02*
Y080110D01*
X019309D01*
X019429Y079990D01*
Y079630D01*
Y079990D01*
X019549Y080110D01*
X019669Y079990D01*
Y079630D01*
X019909Y080350D02*
Y079630D01*
X020269D01*
X020389Y079750D01*
Y079870D01*
Y079990D01*
X020269Y080110D01*
X019909D01*
X020749Y079630D02*
X020989D01*
X021109Y079750D01*
Y079990D01*
X020989Y080110D01*
X020749D01*
X020629Y079990D01*
Y079750D01*
X020749Y079630D01*
X021349D02*
X021589D01*
X021469D01*
Y080350D01*
X021349D01*
X022789D02*
Y079630D01*
Y079990D01*
X023269D01*
Y080350D01*
Y079630D01*
X023509D02*
X023748D01*
X023628D01*
Y080110D01*
X023509D01*
X024228Y080230D02*
Y080110D01*
X024108D01*
X024348D01*
X024228D01*
Y079750D01*
X024348Y079630D01*
X025908Y080230D02*
X025788Y080350D01*
X025548D01*
X025428Y080230D01*
Y079750D01*
X025548Y079630D01*
X025788D01*
X025908Y079750D01*
X026268Y079630D02*
X026508D01*
X026628Y079750D01*
Y079990D01*
X026508Y080110D01*
X026268D01*
X026148Y079990D01*
Y079750D01*
X026268Y079630D01*
X026867Y080110D02*
Y079750D01*
X026987Y079630D01*
X027347D01*
Y080110D01*
X027587Y079630D02*
Y080110D01*
X027947D01*
X028067Y079990D01*
Y079630D01*
X028427Y080230D02*
Y080110D01*
X028307D01*
X028547D01*
X028427D01*
Y079750D01*
X028547Y079630D01*
X029747Y080350D02*
X030227D01*
X029987D01*
Y079630D01*
X030587D02*
X030827D01*
X030947Y079750D01*
Y079990D01*
X030827Y080110D01*
X030587D01*
X030467Y079990D01*
Y079750D01*
X030587Y079630D01*
X031306D02*
X031546D01*
X031666Y079750D01*
Y079990D01*
X031546Y080110D01*
X031306D01*
X031186Y079990D01*
Y079750D01*
X031306Y079630D01*
X031906D02*
X032146D01*
X032026D01*
Y080350D01*
X031906D01*
X033706Y080230D02*
X033586Y080350D01*
X033346D01*
X033226Y080230D01*
Y080110D01*
X033346Y079990D01*
X033586D01*
X033706Y079870D01*
Y079750D01*
X033586Y079630D01*
X033346D01*
X033226Y079750D01*
X033946Y079630D02*
X034185D01*
X034065D01*
Y080110D01*
X033946D01*
X034545D02*
X035025D01*
X034545Y079630D01*
X035025D01*
X035625D02*
X035385D01*
X035265Y079750D01*
Y079990D01*
X035385Y080110D01*
X035625D01*
X035745Y079990D01*
Y079870D01*
X035265D01*
X039624Y079630D02*
Y080350D01*
X039984D01*
X040104Y080230D01*
Y079990D01*
X039984Y079870D01*
X039624D01*
X040344Y079630D02*
X040584D01*
X040464D01*
Y080350D01*
X040344D01*
X041064Y080110D02*
X041304D01*
X041423Y079990D01*
Y079630D01*
X041064D01*
X040944Y079750D01*
X041064Y079870D01*
X041423D01*
X041783Y080230D02*
Y080110D01*
X041663D01*
X041903D01*
X041783D01*
Y079750D01*
X041903Y079630D01*
X042623D02*
X042383D01*
X042263Y079750D01*
Y079990D01*
X042383Y080110D01*
X042623D01*
X042743Y079990D01*
Y079870D01*
X042263D01*
X043463Y080350D02*
Y079630D01*
X043103D01*
X042983Y079750D01*
Y079990D01*
X043103Y080110D01*
X043463D01*
X044663Y080350D02*
Y079630D01*
Y079990D01*
X045143D01*
Y080350D01*
Y079630D01*
X045503D02*
X045742D01*
X045862Y079750D01*
Y079990D01*
X045742Y080110D01*
X045503D01*
X045383Y079990D01*
Y079750D01*
X045503Y079630D01*
X046102D02*
X046342D01*
X046222D01*
Y080350D01*
X046102D01*
X047062Y079630D02*
X046822D01*
X046702Y079750D01*
Y079990D01*
X046822Y080110D01*
X047062D01*
X047182Y079990D01*
Y079870D01*
X046702D01*
X048142Y080350D02*
X048622D01*
X048382D01*
Y079630D01*
X048861Y080110D02*
Y079750D01*
X048981Y079630D01*
X049341D01*
Y079510D01*
X049221Y079390D01*
X049101D01*
X049341Y079630D02*
Y080110D01*
X049581Y079390D02*
Y080110D01*
X049941D01*
X050061Y079990D01*
Y079750D01*
X049941Y079630D01*
X049581D01*
X050661D02*
X050421D01*
X050301Y079750D01*
Y079990D01*
X050421Y080110D01*
X050661D01*
X050781Y079990D01*
Y079870D01*
X050301D01*
X016870Y080710D02*
X051981D01*
X016870Y079090D02*
X051981D01*
X016870Y080710D02*
Y074290D01*
X051981Y080710D02*
Y074290D01*
X022349Y080710D02*
Y074290D01*
X029307Y080710D02*
Y074290D01*
X039184Y080710D02*
Y074290D01*
X044223Y080710D02*
Y074290D01*
X016870Y075490D02*
X051981D01*
X016870Y074290D02*
X051981D01*
D32*
X018230Y077290D02*
G03*
X018230Y077290I-000240J000000D01*
G01*
M02*
